<?xml version="1.0" standalone="no"?>
<!DOCTYPE svg PUBLIC "-//W3C//DTD SVG 20010904//EN"
 "http://www.w3.org/TR/2001/REC-SVG-20010904/DTD/svg10.dtd">
<svg version="1.0" xmlns="http://www.w3.org/2000/svg"
 width="1181.000000pt" height="1181.000000pt" viewBox="0 0 1181.000000 1181.000000"
 preserveAspectRatio="xMidYMid meet">
<metadata>
Created by potrace 1.14, written by Peter Selinger 2001-2017
</metadata>
<g transform="translate(0.000000,1181.000000) scale(0.100000,-0.100000)"
fill="#000000" stroke="none">
<path d="M5865 10450 c-4 -6 -10 -8 -15 -5 -5 3 -10 -7 -12 -22 -2 -23 -8 -29
-35 -31 -19 -2 -33 1 -33 7 0 6 -7 11 -15 11 -8 0 -15 -9 -15 -21 0 -11 -5
-29 -10 -39 -9 -17 -14 -18 -38 -7 -38 16 -55 35 -48 52 3 8 1 17 -4 20 -10 6
-12 0 -12 -47 -1 -20 -9 -31 -35 -45 -21 -11 -31 -23 -28 -32 8 -21 -20 -58
-52 -66 -22 -5 -31 -2 -46 16 -24 30 -47 11 -24 -21 22 -32 5 -76 -33 -83 -16
-4 -31 -14 -34 -24 -9 -26 -74 -93 -90 -93 -7 0 -19 -7 -26 -15 -7 -8 -21 -15
-31 -15 -24 0 -24 -20 -1 -62 19 -34 18 -58 -3 -70 -7 -4 -16 -24 -20 -45 -4
-20 -14 -43 -23 -50 -11 -8 -13 -15 -7 -20 19 -15 34 -51 29 -69 -3 -11 -25
-28 -49 -38 -24 -11 -46 -28 -48 -38 -8 -28 -46 -22 -78 13 -24 26 -28 37 -25
80 1 27 0 49 -4 49 -8 0 -41 -56 -39 -67 7 -44 -34 -50 -74 -12 -27 26 -37 29
-74 25 -38 -3 -47 0 -72 25 -16 16 -32 29 -36 29 -3 0 -5 -20 -4 -44 4 -68
-25 -91 -82 -64 -26 12 -76 75 -96 121 -15 34 -26 36 -13 2 5 -14 6 -25 2 -25
-4 0 -1 -4 7 -9 7 -5 15 -27 18 -49 4 -33 1 -42 -18 -56 -13 -9 -27 -12 -33
-7 -21 16 -55 19 -60 5 -3 -7 -12 -11 -20 -8 -10 4 -20 -5 -29 -28 -18 -40
-52 -78 -72 -78 -25 0 -63 44 -61 70 1 19 -4 25 -19 25 -27 0 -31 -32 -9 -73
18 -34 18 -34 -4 -52 -12 -10 -31 -16 -42 -13 -24 6 -26 -9 -5 -27 23 -19 18
-43 -20 -86 -19 -21 -35 -42 -35 -46 0 -16 -40 -7 -65 15 -17 14 -26 32 -26
52 0 49 4 65 15 65 6 1 1 9 -11 19 -19 16 -22 27 -19 61 7 73 -4 79 -72 45
-35 -18 -69 -16 -64 4 1 7 -2 10 -7 7 -5 -4 -12 -2 -16 4 -3 5 -16 10 -29 10
-13 0 -38 7 -56 16 -20 10 -59 17 -101 17 -38 1 -69 4 -69 8 0 9 -20 6 -37 -4
-9 -5 -13 -2 -13 8 0 8 -6 18 -14 21 -8 3 -19 19 -25 35 -5 16 -17 29 -25 29
-12 0 -26 23 -31 50 -7 42 -18 60 -35 60 -18 0 -20 -7 -20 -62 0 -67 -23 -119
-55 -124 -30 -4 -46 -14 -40 -23 7 -12 -48 -6 -74 9 -12 6 -25 19 -31 30 -7
13 -21 20 -40 20 -35 0 -87 29 -94 52 -6 24 -21 23 -23 -2 -3 -31 25 -90 42
-90 16 0 31 -43 21 -59 -9 -14 -66 -41 -86 -41 -9 0 -20 -3 -24 -7 -13 -14
-61 -12 -99 4 -20 9 -40 13 -43 10 -4 -3 8 -25 26 -47 45 -57 50 -107 14 -143
-15 -15 -23 -27 -19 -27 5 0 -2 -12 -16 -26 -21 -23 -30 -25 -71 -21 -27 2
-48 0 -48 -4 0 -8 26 -25 45 -29 47 -11 61 -31 56 -80 -3 -21 -30 -78 -40 -84
-5 -3 -8 -30 -7 -61 1 -53 -11 -74 -35 -60 -15 10 -69 -24 -63 -39 6 -17 32
-28 45 -21 16 10 79 -7 88 -24 22 -42 21 -69 -2 -91 -28 -27 -25 -70 4 -70 11
0 34 -15 52 -33 18 -17 40 -31 49 -29 29 5 40 -32 26 -85 -18 -72 -31 -91 -82
-118 -40 -21 -51 -23 -69 -13 -12 7 -30 11 -39 9 -10 -1 -26 3 -38 9 -16 9
-20 8 -20 -5 0 -9 4 -25 10 -35 14 -26 3 -47 -28 -53 -36 -7 -52 4 -81 52 -14
22 -33 42 -43 44 -23 6 -23 -6 -1 -24 9 -8 29 -43 45 -79 36 -79 32 -132 -11
-154 -18 -10 -32 -11 -44 -5 -10 6 -26 8 -36 4 -15 -5 -17 -12 -10 -53 8 -58
-3 -84 -36 -79 -13 1 -27 6 -31 10 -4 4 -15 7 -25 7 -16 0 -16 -3 -3 -28 8
-16 28 -40 45 -53 38 -29 55 -70 51 -120 -3 -31 -9 -40 -27 -45 -27 -7 -48
-42 -43 -75 4 -27 -17 -53 -49 -63 -13 -4 -23 -11 -23 -16 0 -6 10 -6 23 -1
13 5 30 6 37 1 7 -5 23 -4 35 0 43 16 59 -26 26 -69 -10 -13 -17 -31 -15 -40
2 -9 -6 -28 -19 -44 -26 -31 -83 -41 -122 -21 -13 7 -27 9 -31 6 -3 -4 -5 8
-2 26 3 21 0 32 -8 32 -6 0 -15 11 -18 25 -4 17 -13 25 -28 25 -12 0 -19 -3
-15 -6 8 -9 -20 -82 -39 -101 -15 -16 -20 -15 -70 11 -54 28 -62 28 -99 -4
-24 -21 -58 -21 -83 1 -10 8 -26 18 -35 22 -13 5 -16 13 -11 34 4 16 3 24 -2
20 -10 -9 -15 -30 -18 -77 -2 -19 -6 -43 -10 -52 -3 -10 -9 -26 -13 -35 -3
-10 -5 -26 -4 -36 2 -11 -5 -21 -18 -24 -11 -3 -23 -14 -26 -24 -4 -10 -11
-19 -17 -19 -18 0 -88 -33 -88 -42 0 -4 -13 -5 -30 -2 -25 5 -34 1 -57 -27
-53 -63 -61 -67 -119 -65 -52 2 -67 -9 -33 -24 87 -41 97 -66 49 -120 -16 -18
-30 -37 -30 -42 0 -4 -7 -8 -15 -8 -9 0 -20 -11 -25 -25 -6 -15 -28 -34 -55
-47 -51 -25 -57 -44 -18 -59 38 -14 62 -38 78 -75 7 -18 22 -35 34 -39 11 -3
22 -14 25 -23 9 -29 -9 -76 -35 -89 -32 -16 -31 -38 2 -39 43 -2 57 -11 64
-43 4 -17 14 -37 23 -43 19 -15 26 -33 24 -65 -3 -47 -5 -59 -18 -78 -8 -11
-14 -28 -14 -38 0 -10 -34 -50 -75 -90 -72 -68 -90 -100 -62 -110 13 -4 50 30
60 56 3 9 19 24 34 34 15 10 35 26 43 36 11 13 29 19 62 19 28 0 52 5 59 14 6
8 17 14 25 14 7 0 18 8 24 18 10 14 12 15 17 2 4 -8 19 -27 35 -42 40 -37 47
-81 17 -102 l-23 -16 43 -36 c57 -50 63 -69 46 -153 -26 -123 -36 -138 -99
-143 -22 -2 -41 -9 -44 -16 -2 -7 2 -10 11 -6 8 3 18 1 22 -5 3 -6 16 -11 28
-11 13 0 30 -9 40 -20 18 -21 23 -60 8 -60 -5 0 -12 -11 -15 -25 -4 -14 -12
-25 -19 -25 -17 0 -77 -58 -77 -75 0 -20 15 -27 70 -30 54 -2 79 -17 77 -43
-2 -25 -46 -29 -210 -20 -86 5 -98 4 -95 -10 3 -17 45 -24 55 -9 4 6 10 2 13
-9 5 -13 1 -23 -14 -31 -20 -12 -20 -13 4 -9 14 3 29 5 33 5 5 1 5 6 1 13 -5
8 -2 9 11 4 11 -4 21 -2 26 5 4 8 30 11 71 10 114 -5 111 -4 119 -34 6 -23 2
-34 -23 -62 -16 -19 -37 -35 -46 -35 -18 0 -82 -47 -82 -60 0 -5 13 -4 30 1
17 6 30 14 30 18 0 4 6 8 13 9 32 2 83 15 87 21 19 26 85 -22 114 -83 20 -42
20 -70 1 -86 -19 -16 -20 -50 0 -50 8 0 25 5 39 11 32 15 86 -5 86 -32 0 -10
4 -21 10 -24 6 -3 10 -24 10 -46 0 -43 -16 -57 -47 -41 -16 9 -41 3 -62 -14
-2 -2 8 -21 22 -41 28 -42 41 -89 26 -99 -5 -3 -7 -9 -4 -13 2 -5 -6 -20 -20
-35 -13 -14 -22 -26 -19 -26 2 0 -3 -12 -12 -26 -14 -20 -24 -25 -53 -23 -20
2 -43 7 -52 13 -9 5 -25 6 -35 2 -18 -7 -18 -8 0 -22 11 -8 16 -14 11 -14 -4
0 -1 -8 7 -17 25 -29 30 -70 13 -103 -8 -16 -14 -34 -13 -41 5 -17 -44 -49
-80 -52 -17 -1 -32 -3 -32 -4 0 -2 8 -11 19 -22 26 -26 23 -101 -4 -111 -11
-4 -28 -3 -38 2 -10 5 -27 6 -39 2 -20 -6 -21 -7 -4 -19 10 -8 39 -19 66 -25
48 -11 48 -12 52 -56 3 -45 -12 -74 -40 -74 -14 0 -52 -36 -52 -50 0 -6 9 -6
23 -1 28 10 65 5 94 -15 21 -13 23 -21 20 -86 -3 -67 -5 -72 -37 -99 -18 -15
-37 -26 -41 -24 -4 3 -9 2 -11 -3 -1 -4 -18 -18 -35 -31 -18 -12 -33 -27 -33
-32 0 -12 37 -6 52 9 7 7 18 12 25 12 7 0 33 12 58 26 63 35 82 37 100 11 17
-24 20 -63 5 -72 -7 -4 -7 -13 0 -25 8 -15 6 -21 -9 -29 -10 -6 -21 -8 -24 -5
-9 9 -26 -31 -19 -43 8 -12 72 -5 72 7 0 16 51 20 71 6 11 -7 28 -12 38 -9 12
3 35 -11 65 -41 61 -58 69 -105 26 -148 -33 -33 -48 -78 -26 -78 9 0 20 9 26
20 18 34 96 44 113 14 11 -19 36 -18 44 3 4 10 17 29 30 43 20 22 31 25 88 24
96 0 121 -30 132 -154 3 -37 0 -47 -18 -61 -23 -17 -21 -52 3 -44 7 2 48 9 91
14 43 5 86 16 95 24 9 8 28 17 42 20 24 6 24 5 6 -8 -23 -18 -16 -29 12 -21
25 8 42 54 31 83 -8 21 -10 21 -59 8 -28 -7 -53 -14 -55 -14 -3 -1 -10 -3 -17
-5 -101 -28 -93 -31 -112 42 -14 53 -9 86 16 122 15 20 26 24 68 24 27 -1 50
3 50 8 0 5 4 7 10 3 5 -3 18 0 29 7 17 10 23 10 33 0 11 -11 10 -16 -4 -26
-26 -19 -22 -26 12 -26 30 0 52 -25 55 -64 1 -11 7 -22 13 -24 8 -2 7 -8 -3
-18 -10 -11 -12 -21 -6 -32 6 -12 5 -24 -5 -36 -12 -17 -12 -22 3 -38 9 -10
27 -18 40 -18 24 0 27 -4 38 -53 3 -16 19 -41 35 -56 23 -21 27 -30 18 -39
-14 -14 -3 -28 27 -34 13 -2 21 -12 23 -31 2 -15 11 -31 21 -37 26 -13 16 -55
-26 -110 -37 -48 -27 -72 11 -28 11 14 41 30 65 36 40 10 45 9 68 -14 13 -13
35 -24 49 -24 48 0 76 -121 40 -174 -9 -14 -16 -31 -16 -38 0 -7 13 9 28 36
30 56 51 68 59 37 5 -20 23 -30 23 -13 0 4 18 27 40 52 39 43 41 44 55 26 8
-11 15 -23 15 -28 0 -18 36 -6 55 18 29 36 89 40 110 8 8 -13 15 -34 15 -48 0
-23 16 -44 26 -34 2 3 5 17 6 32 2 23 28 62 28 41 0 -4 11 0 25 9 36 24 62 13
69 -29 8 -42 32 -47 31 -7 0 26 2 27 43 25 24 -1 50 -7 58 -14 18 -15 9 -74
-17 -110 -10 -15 -19 -34 -19 -41 0 -17 -31 -48 -47 -48 -6 0 -14 -7 -17 -16
-11 -28 -86 -52 -153 -48 -64 4 -70 1 -54 -25 10 -15 40 -20 141 -22 61 -2
104 -14 96 -28 -3 -5 3 -20 14 -34 13 -16 19 -37 17 -58 -2 -29 -8 -35 -42
-48 -50 -19 -83 -56 -52 -59 48 -4 84 -24 135 -73 32 -31 67 -59 78 -63 12 -3
29 -22 39 -40 19 -34 19 -34 -8 -75 -15 -22 -27 -43 -27 -46 0 -12 29 -3 45
15 29 32 89 8 83 -34 -1 -12 5 -32 15 -46 23 -34 21 -56 -9 -96 l-26 -34 33
12 c19 6 39 14 44 18 6 4 33 14 62 23 44 12 56 12 77 1 14 -7 28 -9 31 -4 5 9
17 7 61 -5 13 -4 25 0 33 9 17 20 32 20 77 -1 34 -17 36 -17 45 0 12 21 45 22
53 1 3 -9 6 -33 6 -55 0 -48 11 -50 33 -4 9 20 24 38 32 41 8 4 15 12 15 20 0
17 48 30 62 16 15 -15 46 -3 52 21 3 12 21 33 40 46 20 13 38 31 41 42 5 15
13 17 38 12 18 -3 34 -7 36 -9 2 -2 9 4 16 12 10 15 14 15 43 0 34 -17 40 -13
48 31 3 15 8 32 12 38 4 5 9 24 11 40 2 17 7 35 12 41 15 18 57 23 76 8 36
-27 36 -13 0 24 -20 21 -37 47 -37 58 0 37 21 82 46 99 13 8 24 25 24 36 0 47
16 57 83 50 4 -1 16 -15 26 -32 18 -30 19 -33 3 -58 -9 -14 -22 -32 -29 -39
-7 -7 -13 -20 -13 -28 0 -16 0 -16 68 30 l44 30 35 -19 c19 -11 48 -35 65 -55
30 -36 33 -64 12 -145 l-7 -29 27 17 c16 11 41 17 59 15 24 -2 35 2 42 17 6
11 19 20 28 20 10 0 22 6 26 14 6 9 20 11 50 6 57 -9 74 -29 66 -74 -4 -20 -9
-45 -11 -56 -2 -13 4 -25 18 -34 38 -24 88 23 88 82 0 38 28 67 61 65 24 -2
31 -8 39 -38 5 -19 10 -41 10 -48 0 -9 5 -10 19 -2 17 8 18 14 9 38 -14 36 -4
74 25 104 31 32 44 32 82 3 19 -14 38 -25 44 -25 15 0 46 50 47 75 1 46 16 83
37 92 28 13 77 6 99 -14 13 -12 21 -13 31 -5 10 9 18 6 32 -10 16 -20 17 -27
6 -84 -7 -35 -10 -67 -7 -72 7 -11 -17 -32 -64 -58 -33 -18 -52 -35 -46 -41 8
-8 90 29 104 47 20 24 60 34 78 19 7 -6 18 -8 24 -4 5 3 10 2 10 -3 0 -13 76
-46 88 -38 5 3 13 -5 16 -18 3 -13 17 -31 31 -40 14 -9 25 -24 25 -34 0 -26
18 -49 28 -36 4 6 19 14 33 17 31 8 66 -23 53 -45 -13 -20 -14 -39 -2 -32 6 4
16 0 22 -8 6 -8 22 -20 35 -28 20 -10 25 -10 33 4 11 20 104 23 111 4 7 -20
-13 -50 -29 -44 -19 7 -47 -37 -46 -72 3 -71 8 -88 31 -110 13 -12 29 -21 35
-19 12 4 25 48 30 106 3 34 10 49 30 64 14 10 26 23 26 28 0 29 91 78 138 74
21 -1 53 -28 51 -42 -1 -4 -1 -15 0 -22 1 -12 4 -12 13 -3 15 15 48 16 49 2 2
-11 5 -25 9 -37 4 -15 7 -28 9 -48 2 -19 3 -19 21 4 11 12 17 27 14 33 -13 20
6 58 29 58 24 0 47 37 47 75 0 12 8 29 18 38 20 18 72 23 72 7 0 -5 7 -10 15
-10 8 0 15 7 15 15 0 27 55 42 129 33 20 -3 24 2 25 26 2 30 30 58 51 50 9 -4
12 1 8 14 -6 25 29 35 54 16 10 -7 25 -14 34 -14 21 0 41 -24 54 -63 13 -38
29 -44 42 -15 8 18 5 27 -11 44 -66 68 -73 85 -49 121 14 21 14 25 -1 42 -10
11 -16 28 -15 38 2 10 0 24 -4 31 -5 6 -6 12 -2 12 3 0 -1 13 -10 30 -17 34
-20 70 -4 70 5 0 8 4 5 9 -8 13 11 24 77 46 31 10 57 24 57 31 0 7 6 15 13 18
8 3 3 12 -15 26 -27 21 -69 100 -82 151 -3 15 -15 29 -25 32 -32 8 -61 66 -61
120 0 54 14 64 90 69 42 2 60 -10 60 -43 0 -12 10 -16 44 -15 28 1 51 -5 63
-16 12 -11 23 -14 32 -9 8 5 27 3 47 -5 19 -8 34 -11 34 -8 0 4 7 1 15 -6 12
-10 13 -15 4 -20 -20 -13 -1 -28 38 -28 44 -1 72 17 78 49 8 38 23 46 55 27
17 -10 32 -13 35 -7 4 5 16 1 30 -8 12 -10 21 -21 19 -25 -5 -8 28 -28 45 -28
6 0 15 9 21 20 10 18 7 21 -20 26 -16 4 -30 12 -30 18 0 12 20 45 20 34 0 -8
109 30 124 43 5 5 25 -3 44 -18 30 -23 39 -25 63 -16 21 8 29 8 29 0 0 -24 11
2 16 39 5 38 4 40 -23 39 -18 0 -28 5 -28 15 -2 26 18 41 49 38 29 -3 31 -1
28 30 -3 27 0 32 18 32 12 0 19 4 15 10 -8 12 36 80 53 80 6 0 12 11 12 24 0
25 20 39 44 30 14 -5 43 14 75 48 8 10 24 18 35 18 36 0 3 18 -42 23 -56 6
-64 15 -73 79 -7 57 9 118 33 119 7 0 38 2 69 3 l57 3 -2 -73 c-2 -58 1 -74
12 -74 7 0 12 6 9 13 -2 6 2 26 9 42 12 30 14 37 14 54 0 5 20 14 44 20 24 6
46 18 50 26 6 18 53 20 58 3 5 -15 39 -20 54 -7 27 22 103 -48 107 -99 1 -13
8 -20 20 -19 16 1 18 7 12 44 -7 49 7 83 35 83 11 0 20 4 20 9 0 5 12 12 26
15 33 9 71 -15 76 -46 2 -13 10 -24 20 -26 14 -3 15 2 8 32 -5 23 -3 49 5 73
11 33 20 40 64 55 27 10 56 15 63 12 18 -7 78 -90 78 -108 0 -19 25 -27 39
-13 17 17 13 33 -14 51 -30 20 -58 70 -63 112 -3 32 -1 35 88 104 44 34 42 34
84 5 20 -14 43 -25 49 -25 7 0 18 -5 25 -12 9 -9 12 -9 12 3 0 17 -40 59 -56
59 -5 0 -19 25 -30 56 -20 51 -21 56 -5 74 9 11 34 23 56 28 l39 8 -31 13
c-38 15 -48 38 -34 75 11 27 15 28 68 28 18 0 35 4 38 9 4 5 -1 9 -10 9 -8 0
-18 7 -21 15 -4 8 -9 13 -13 10 -4 -2 -17 2 -28 10 -16 12 -19 21 -14 46 5 26
14 35 46 47 22 8 54 14 70 14 17 -1 23 2 15 5 -8 3 -38 26 -66 50 -39 32 -51
49 -47 63 3 11 -2 31 -11 45 -22 34 -4 70 48 98 41 21 47 24 67 26 8 1 8 5 0
14 -12 15 -74 11 -65 -4 3 -5 -8 -9 -25 -9 -16 0 -32 -4 -35 -9 -9 -15 -98 -7
-106 9 -22 45 -25 76 -10 102 8 16 18 28 23 28 4 0 7 15 7 34 l0 35 -42 -5
c-24 -3 -53 -5 -66 -6 -24 0 -91 28 -93 40 -6 43 -4 66 8 77 12 12 12 19 -2
44 -8 17 -15 39 -15 49 0 20 31 62 46 62 5 0 21 11 34 23 18 17 37 24 64 23
27 -1 40 4 42 14 2 8 11 38 20 65 16 46 26 60 47 67 4 2 3 17 -2 35 -7 25 -6
33 6 38 9 3 18 3 21 0 3 -3 2 -5 -2 -5 -4 0 -1 -7 8 -15 17 -17 66 -20 66 -5
0 6 -7 27 -17 48 -9 20 -15 41 -14 47 1 5 4 37 6 71 1 34 7 69 12 79 11 20 5
65 -9 65 -5 0 -8 21 -7 48 3 43 1 47 -19 46 -12 0 -22 3 -22 8 0 4 -3 7 -7 7
-22 -4 -34 4 -48 31 -8 16 -15 31 -15 34 0 11 55 32 73 29 9 -3 17 1 17 7 0 6
-6 10 -13 8 -7 -2 -36 8 -64 21 -64 29 -74 56 -41 109 12 20 33 48 45 62 45
49 20 47 -30 -3 -24 -23 -50 -15 -88 27 -34 37 -35 47 -9 71 11 10 20 23 19
29 0 6 -3 6 -6 -1 -8 -21 -45 -14 -95 17 -49 31 -61 50 -32 50 12 0 15 6 10
26 -10 38 8 55 44 41 17 -6 30 -15 30 -19 0 -4 13 -8 29 -8 38 0 61 -9 61 -24
1 -28 16 -37 43 -25 33 15 34 23 2 57 -27 29 -31 52 -13 70 14 14 32 16 23 2
-3 -5 6 -17 20 -26 13 -9 22 -20 19 -25 -3 -5 2 -9 11 -9 8 0 18 7 22 16 3 8
12 13 19 10 18 -7 18 3 -2 49 -30 74 7 126 64 87 43 -30 60 -33 67 -13 6 21
-2 49 -22 73 -8 9 -12 22 -8 27 3 6 -1 14 -9 17 -9 3 -16 12 -16 20 0 7 -9 18
-20 24 -11 6 -20 16 -20 23 2 52 97 71 131 26 10 -13 19 -20 19 -16 0 4 9 3
19 -3 29 -15 35 5 8 29 -72 66 -103 91 -119 97 -10 3 -18 14 -18 24 0 10 -4
22 -10 25 -21 13 -8 48 31 83 50 45 114 62 186 48 13 -3 25 -1 28 5 4 5 -3 9
-13 9 -11 0 -25 6 -31 14 -8 9 -26 12 -60 8 -43 -4 -50 -2 -56 17 -3 11 -4 25
0 30 3 5 1 12 -4 15 -5 4 -8 12 -7 19 4 25 18 37 46 37 29 0 48 15 36 28 -4 3
-26 7 -49 8 -29 1 -44 7 -52 20 -5 10 -18 31 -28 46 -16 25 -16 28 3 75 12 26
31 56 43 65 12 10 17 18 12 18 -6 0 -22 -11 -35 -23 -14 -13 -34 -23 -44 -21
-23 3 -57 34 -50 45 3 5 0 9 -6 9 -7 0 -10 13 -8 33 2 22 8 31 19 29 8 -1 29
14 45 34 16 20 39 46 51 57 25 22 22 37 -8 37 -10 0 -19 6 -19 14 0 22 -40 7
-73 -27 -23 -23 -34 -28 -55 -23 -15 4 -40 8 -56 10 -43 5 -67 42 -62 95 3 25
11 48 18 53 7 4 9 8 4 8 -5 0 -3 7 4 15 11 13 10 14 -1 10 -8 -3 -24 -23 -37
-43 -19 -31 -30 -38 -59 -40 -60 -4 -68 12 -44 95 13 47 10 91 -10 143 l-14
35 -7 -50 c-4 -27 -10 -69 -13 -93 -8 -60 -22 -93 -48 -111 -12 -9 -24 -16
-27 -17 -34 -10 -50 -18 -50 -25 0 -12 -17 -11 -62 2 -21 5 -38 16 -38 24 0 7
-7 20 -15 29 -20 20 -35 61 -35 99 0 28 -19 78 -20 52 0 -5 -4 -4 -9 3 -5 9
-10 -3 -14 -35 -4 -26 -9 -57 -11 -68 -3 -11 -5 -23 -5 -28 -1 -10 -111 -4
-111 6 0 4 16 7 35 7 23 0 37 6 44 18 12 22 5 32 -34 52 -59 30 -39 120 27
120 37 0 45 22 24 69 -10 20 -19 49 -20 63 -4 34 -14 48 -43 59 -21 8 -24 14
-18 37 7 31 33 54 88 79 37 17 56 53 20 38 -48 -19 -98 -17 -133 7 -30 20 -35
30 -36 65 -1 52 -9 62 -42 61 -43 -1 -86 11 -99 28 -9 12 -8 25 3 57 8 22 19
46 26 54 20 24 -1 27 -44 5 -52 -26 -65 -28 -101 -19 -45 12 -48 36 -21 150 5
20 3 27 -8 27 -14 0 -36 -43 -47 -90 -13 -53 -116 -22 -136 40 -7 21 -39 27
-50 11 -9 -16 -74 -5 -101 15 -21 17 -27 37 -33 117 -2 14 -41 -13 -41 -28 0
-21 -17 -18 -30 4 -8 16 -5 25 12 44 26 27 68 44 68 28 0 -6 6 -11 13 -11 7 0
33 -10 57 -21 30 -15 45 -18 48 -10 2 6 10 18 18 26 13 13 11 16 -18 28 -18 8
-39 21 -46 29 -11 14 -9 19 14 37 14 11 30 19 34 16 4 -3 10 4 13 15 3 13 0
20 -8 20 -25 0 -75 51 -75 77 0 28 13 44 58 67 18 9 32 19 32 22 0 3 -4 2 -10
-1 -5 -3 -10 -1 -10 5 0 6 -4 9 -9 6 -15 -10 -39 4 -44 25 -3 11 -6 22 -7 24
-15 45 -18 69 -10 83 6 10 14 29 20 45 5 15 15 29 22 31 74 21 98 31 87 36
-33 14 -88 52 -93 65 -3 8 8 28 24 44 17 16 30 32 30 35 0 12 -28 6 -40 -9
-16 -19 -54 -19 -69 -1 -7 8 -16 28 -21 45 -8 29 -6 32 48 66 61 38 64 43 9
20 -19 -8 -37 -11 -41 -8 -3 4 -6 28 -6 55 l0 49 -28 -20 c-24 -17 -83 -27
-130 -22 -7 0 -17 13 -23 28 -11 31 -1 56 52 124 21 26 24 36 13 36 -8 0 -24
-13 -35 -29 -14 -19 -29 -28 -48 -28 -31 0 -98 25 -121 45 -8 7 -31 15 -50 18
-41 6 -95 29 -130 57 -36 28 -74 31 -75 5 -2 -46 -18 -105 -32 -116 -11 -10
-18 -8 -33 7 -10 10 -20 25 -22 33 -2 8 -13 24 -26 35 -12 12 -30 37 -40 56
-11 23 -24 35 -37 35 -18 0 -20 -6 -17 -67 2 -63 1 -67 -26 -87 -24 -16 -42
-20 -104 -18 -77 2 -114 18 -104 43 3 7 1 16 -5 20 -6 3 -8 12 -5 20 5 13 -18
44 -32 44 -10 0 -42 -59 -42 -76 0 -7 9 -29 20 -49 27 -48 25 -69 -6 -94 -38
-30 -65 -26 -109 13 -21 19 -42 33 -47 30 -8 -5 10 -52 29 -72 16 -16 17 -48
3 -57 -7 -4 -5 -14 4 -27 11 -16 12 -26 4 -44 -6 -13 -14 -24 -18 -24 -7 0
-71 29 -79 36 -8 7 21 34 30 28 16 -9 10 13 -11 39 -11 14 -20 30 -20 36 0 5
-16 26 -36 45 -31 30 -40 34 -56 25 -16 -9 -19 -17 -14 -42 6 -30 6 -30 -14
-12 -18 16 -43 81 -39 102 3 19 -3 21 -36 12 -55 -15 -98 16 -135 99 -11 23
-22 42 -25 42 -3 0 -19 -14 -36 -31 -28 -29 -35 -31 -74 -25 -25 3 -47 1 -50
-4 -13 -22 -46 -9 -66 25 -28 48 -55 46 -63 -3 -5 -32 -11 -40 -42 -51 -20 -7
-52 -13 -72 -13 -35 0 -39 3 -77 56 -13 18 -14 18 -32 1 -10 -10 -17 -20 -15
-22 8 -10 0 -12 -16 -4 -10 5 -24 21 -32 35 -12 23 -11 28 5 46 19 21 21 19
-52 45 -22 8 -21 130 2 155 21 23 19 33 -7 27 -22 -6 -58 16 -58 35 0 5 16 25
36 44 37 34 37 34 11 34 -17 0 -33 10 -47 30 -12 17 -26 28 -31 25 -5 -4 -9 1
-9 9 0 21 -43 21 -60 1 -7 -8 -22 -13 -34 -11 -11 3 -24 5 -28 5 -7 1 -19 32
-15 42 4 12 -36 49 -53 49 -9 0 -22 6 -28 12 -10 10 -17 10 -32 0 -33 -20 -57
-14 -70 19 -9 22 -17 28 -29 23 -41 -17 -57 -14 -93 21 -21 20 -39 31 -43 25z
m-415 -1267 c17 -16 37 -34 46 -41 16 -14 15 -33 -1 -34 -6 0 -15 -4 -21 -8
-5 -5 -23 -6 -40 -1 -22 5 -32 17 -41 44 -23 68 5 87 57 40z m734 -118 c3 -8
14 -15 24 -15 14 0 26 -15 41 -51 32 -78 29 -101 -19 -128 -22 -12 -42 -26
-45 -31 -10 -16 6 -37 30 -37 28 0 84 -42 84 -63 1 -9 -3 -20 -9 -26 -6 -6 -6
-15 0 -24 7 -10 10 -11 10 -2 0 6 10 12 23 12 13 0 28 5 34 11 15 15 59 -15
67 -46 6 -24 -11 -65 -26 -65 -12 0 -39 -60 -33 -70 7 -12 45 -13 45 -2 0 15
70 82 85 82 23 0 55 -37 55 -63 0 -12 -11 -38 -24 -58 -15 -22 -24 -48 -23
-71 1 -43 23 -41 32 4 4 16 13 32 21 35 8 3 14 10 14 17 1 16 39 60 47 53 3
-4 17 3 31 13 34 27 71 25 146 -10 47 -21 73 -28 99 -23 38 6 35 9 64 -92 7
-27 16 -66 18 -85 9 -62 14 -78 31 -84 15 -6 16 1 10 56 -8 72 -8 125 0 151 8
24 46 65 64 67 47 7 61 -1 82 -47 13 -27 24 -50 25 -52 1 -2 9 -1 17 2 13 5
13 9 0 36 -19 37 -15 100 7 114 15 9 23 9 53 -4 5 -2 11 6 13 19 7 49 22 65
56 58 18 -4 34 -11 35 -16 2 -6 10 -10 18 -10 8 0 14 -5 14 -11 0 -6 6 -9 13
-6 13 4 17 36 6 52 -14 22 -16 72 -4 102 8 18 12 33 9 33 -3 0 -2 5 2 11 5 8
10 7 16 -5 5 -8 8 -18 8 -21 0 -3 7 -13 15 -22 9 -9 14 -24 12 -34 -4 -14 3
-19 33 -24 45 -8 54 -22 34 -60 -12 -23 -12 -30 -2 -37 7 -4 18 -6 25 -4 6 3
19 -5 30 -16 10 -11 28 -24 41 -29 12 -5 22 -17 22 -27 0 -10 3 -22 8 -26 4
-4 12 -24 18 -44 8 -31 14 -37 35 -35 46 4 59 7 59 13 0 4 9 16 20 28 20 21
22 21 54 5 19 -9 37 -24 39 -34 3 -11 14 -19 26 -19 12 0 24 -7 27 -15 4 -8
13 -15 20 -15 8 0 19 -12 24 -26 6 -14 19 -28 31 -31 14 -4 18 -11 14 -22 -4
-9 -9 -31 -12 -48 -4 -26 -2 -33 10 -33 11 0 19 17 28 56 17 76 34 90 106 90
31 -1 58 -6 60 -12 2 -6 -32 -48 -75 -92 -87 -91 -73 -87 -181 -48 -57 21 -59
20 -67 -9 -7 -27 18 -65 42 -65 23 0 74 -35 73 -50 0 -8 -4 -24 -8 -35 -5 -12
-4 -25 2 -33 7 -9 6 -20 -2 -35 -12 -24 -12 -77 1 -77 12 0 4 -36 -12 -55 -7
-9 -31 -25 -52 -36 -58 -29 -47 -46 37 -56 47 -5 61 -15 67 -47 6 -32 -23 -65
-61 -68 -17 -1 -31 -5 -31 -9 0 -13 26 -25 50 -23 53 5 68 -14 85 -110 4 -24
16 -47 30 -58 13 -10 34 -37 46 -58 23 -41 37 -47 67 -31 31 15 80 -6 98 -44
9 -19 20 -35 25 -35 19 0 8 -44 -16 -66 -25 -23 -33 -58 -16 -68 5 -3 24 8 41
24 49 46 62 51 82 33 10 -9 32 -16 50 -15 36 1 68 -13 68 -31 1 -7 10 -23 21
-36 l20 -24 22 21 c13 12 32 23 42 24 24 4 67 33 60 40 -11 11 33 37 70 41 46
6 88 -12 111 -48 14 -22 14 -25 -7 -46 -16 -16 -35 -23 -66 -23 -43 -1 -53 -8
-30 -23 11 -8 25 -28 54 -83 20 -38 15 -90 -12 -139 l-25 -43 34 -32 c37 -34
55 -87 36 -108 -6 -7 -26 -37 -45 -65 l-34 -53 29 0 c16 0 40 4 53 9 22 9 27
6 43 -25 18 -33 18 -36 3 -48 -23 -16 -2 -60 21 -46 26 17 41 11 54 -22 15
-35 13 -39 -37 -71 -27 -18 -30 -18 -48 -1 -11 10 -18 23 -15 30 3 8 -1 11
-10 7 -7 -3 -15 -14 -15 -24 -1 -10 -2 -25 -3 -31 0 -7 -21 -19 -46 -26 -97
-28 -105 -41 -73 -115 14 -32 14 -41 3 -62 -19 -35 -67 -42 -112 -16 -33 20
-68 20 -68 0 0 -13 50 -59 64 -59 17 0 27 -35 14 -48 -6 -6 -6 -22 0 -44 5
-20 6 -43 0 -58 -5 -14 -7 -33 -4 -43 4 -15 0 -17 -32 -11 -21 3 -46 12 -57
19 -25 15 -45 9 -45 -15 0 -14 11 -22 38 -30 31 -8 42 -18 56 -49 17 -36 17
-40 1 -64 -14 -22 -15 -32 -5 -62 7 -20 10 -39 6 -42 -3 -3 -27 -7 -53 -10
-70 -7 -78 -10 -63 -28 7 -8 23 -15 36 -15 47 0 102 -30 113 -62 17 -47 13
-64 -18 -90 l-28 -24 28 -32 c34 -38 36 -51 9 -85 -25 -31 -25 -44 -2 -51 9
-3 35 -23 57 -43 34 -31 46 -36 80 -34 22 1 47 4 56 7 12 3 20 -5 27 -26 12
-33 35 -60 51 -60 5 0 22 -19 38 -42 19 -29 38 -44 59 -48 34 -7 114 -50 114
-61 0 -3 -24 -25 -53 -48 -51 -39 -77 -50 -77 -33 0 8 -57 42 -71 42 -20 0 -7
-32 29 -67 57 -56 60 -71 14 -88 -20 -8 -58 -26 -85 -40 -26 -14 -59 -25 -73
-25 -21 0 -24 -3 -15 -13 6 -8 15 -38 21 -67 16 -86 -20 -181 -65 -172 -11 3
-23 8 -26 13 -3 5 -16 12 -29 14 -13 2 -28 9 -33 14 -10 10 -47 3 -47 -9 0 -8
40 -26 82 -36 43 -10 57 -36 46 -87 -2 -9 -33 -38 -68 -63 l-63 -47 24 -18
c13 -10 33 -22 44 -25 11 -4 23 -12 27 -18 11 -16 9 -54 -3 -61 -13 -9 -49 23
-49 45 0 12 -10 16 -37 17 -28 1 -44 8 -61 28 -13 15 -21 34 -18 41 3 8 9 21
12 29 12 30 -11 14 -26 -18 -14 -29 -19 -32 -67 -35 -43 -2 -53 0 -53 13 0 9
-9 36 -20 61 -19 40 -29 49 -54 45 -4 -1 -14 3 -21 9 -11 9 -12 1 -9 -45 4
-45 2 -56 -12 -62 -9 -3 -25 -1 -35 5 -22 14 -29 15 -28 5 4 -24 -4 -32 -28
-30 -20 2 -32 12 -47 40 l-20 37 -11 -28 c-14 -32 -42 -38 -83 -16 -38 20 -40
18 -48 -21 -11 -61 -104 -90 -165 -53 -36 22 -38 21 -45 -18 -2 -16 -15 -38
-27 -49 -28 -25 -40 -52 -27 -60 6 -4 10 -22 10 -42 0 -20 -3 -33 -6 -30 -4 3
-15 2 -24 -3 -13 -7 -29 -5 -54 5 -40 17 -54 7 -26 -18 15 -12 17 -22 11 -38
-4 -12 -4 -41 0 -63 4 -23 4 -43 0 -46 -5 -3 -7 -16 -6 -28 4 -47 -57 -84 -96
-59 -9 6 -25 7 -35 2 -16 -6 -13 -9 19 -17 20 -6 37 -13 37 -18 0 -4 12 -20
26 -35 25 -27 26 -29 8 -42 -11 -8 -18 -22 -16 -32 1 -10 -4 -24 -13 -31 -14
-12 -14 -15 1 -31 9 -10 20 -17 24 -14 4 2 11 -16 17 -40 6 -25 6 -45 2 -45
-5 0 -9 -6 -10 -12 0 -19 -56 -60 -76 -56 -9 2 -23 22 -32 48 -14 41 -16 43
-21 20 -8 -41 -43 -90 -63 -90 -10 0 -16 4 -13 9 4 5 -15 17 -41 27 -27 9 -56
25 -67 35 -25 23 -64 127 -65 177 -1 13 -7 22 -17 22 -9 0 -14 -6 -11 -12 2
-7 0 -21 -4 -30 -6 -10 -5 -26 2 -41 9 -20 6 -33 -16 -75 -26 -49 -27 -50 -58
-41 -18 5 -32 9 -33 9 -1 0 -4 8 -6 18 -3 10 -13 19 -22 19 -13 0 -16 -6 -11
-28 8 -35 -22 -54 -72 -46 -33 6 -35 5 -29 -18 4 -15 2 -25 -4 -25 -6 0 -9 -4
-6 -9 10 -16 -45 -23 -68 -8 -19 13 -24 12 -52 -10 -18 -13 -36 -23 -40 -21
-14 3 -76 -13 -96 -26 -10 -6 -18 -19 -18 -28 0 -14 -6 -16 -30 -12 -16 4 -41
3 -56 0 -24 -6 -25 -8 -10 -24 8 -10 17 -33 18 -52 2 -27 -1 -35 -16 -38 -27
-6 -40 12 -26 37 9 17 8 25 -5 37 -25 25 -7 70 49 125 11 10 17 21 14 24 -6 7
-49 13 -91 14 -19 1 -31 8 -39 26 -8 18 -19 25 -38 25 -52 0 -59 46 -21 128
14 29 21 55 16 59 -4 5 -10 3 -12 -4 -2 -6 -15 -24 -29 -40 -13 -15 -24 -31
-24 -35 0 -5 -15 -8 -33 -8 -47 0 -71 29 -64 75 5 28 2 37 -13 45 -21 11 -97
5 -114 -9 -26 -22 -53 -15 -83 19 -16 19 -33 46 -36 60 -4 14 -10 30 -14 36
-10 13 -63 27 -63 17 0 -5 -13 -14 -30 -21 -27 -12 -36 -32 -31 -65 3 -16 -32
-73 -57 -93 -29 -24 -92 -30 -136 -13 -72 28 -135 59 -141 68 -13 22 -21 10
-17 -24 10 -84 -53 -138 -160 -139 -55 0 -70 -7 -49 -21 9 -5 9 -16 -4 -77 -9
-41 -51 -76 -101 -84 -60 -9 -72 -25 -51 -70 19 -39 22 -84 7 -84 -5 0 -10 -8
-10 -19 0 -10 -10 -26 -22 -35 -16 -12 -19 -18 -10 -22 19 -9 14 -31 -8 -37
-23 -6 -36 12 -41 58 -2 18 1 29 7 28 7 -1 11 16 10 45 l-1 47 -51 5 c-55 6
-95 27 -120 65 -12 19 -22 23 -39 19 -17 -4 -29 0 -42 15 -9 12 -23 21 -31 21
-7 0 -37 25 -66 56 -56 59 -70 62 -87 18 -7 -20 -12 -23 -28 -15 -10 6 -24 24
-31 41 -20 49 -39 38 -42 -27 -3 -51 -6 -58 -25 -61 -14 -2 -23 3 -28 17 -10
31 -23 25 -27 -11 -2 -24 -9 -34 -23 -36 -11 -2 -44 -15 -73 -30 -42 -20 -57
-24 -70 -15 -9 6 -16 16 -15 22 4 16 -44 44 -63 37 -11 -4 -14 -1 -12 12 2 11
14 18 33 19 17 0 38 2 49 2 16 1 16 3 -5 20 -16 13 -24 30 -25 53 -1 18 -4 43
-7 55 -5 18 0 23 23 28 l29 6 -19 22 c-24 25 -25 46 -5 61 13 10 13 17 0 59
-9 30 -11 56 -6 70 5 12 5 32 0 44 -11 29 -14 127 -5 142 5 8 1 10 -16 7 -40
-7 -55 13 -52 69 2 27 8 51 12 53 5 1 18 9 28 17 18 13 18 15 2 31 -17 17 -18
17 -38 -1 -21 -19 -22 -19 -76 9 -62 33 -80 56 -64 85 7 14 7 28 -2 47 -11 23
-10 28 11 45 13 11 18 19 12 19 -7 0 -9 5 -6 10 3 6 1 10 -5 10 -6 0 -15 -12
-21 -27 -17 -46 -79 -81 -103 -58 -15 15 -11 55 6 55 5 0 7 4 3 9 -3 5 -1 12
5 16 14 9 12 25 -3 25 -8 0 -20 -12 -28 -27 -19 -35 -63 -53 -103 -42 -42 12
-48 22 -48 68 1 58 -28 51 -36 -9 -7 -49 -56 -79 -89 -55 -12 9 -18 28 -19 65
-2 54 -14 84 -14 34 0 -33 -15 -54 -39 -54 -9 0 -28 -7 -43 -14 -15 -8 -40
-16 -55 -17 -15 -2 -36 -10 -45 -17 -14 -12 -23 -12 -46 -3 -16 7 -35 11 -43
9 -8 -2 -23 15 -36 41 -28 56 -29 56 -48 37 -20 -20 -35 -21 -35 -2 0 7 -7 19
-15 26 -8 7 -15 26 -15 42 0 21 -11 41 -36 66 -45 45 -79 125 -64 152 11 20
39 39 68 45 34 7 147 57 154 69 15 22 7 26 -22 11 -16 -9 -30 -13 -30 -10 0 3
-18 -6 -40 -20 -57 -36 -110 -34 -144 6 -14 17 -26 41 -26 53 0 20 -7 24 -41
29 -69 9 -126 88 -92 128 11 13 11 18 -5 32 -17 16 -20 15 -41 -4 -45 -43
-119 -31 -122 19 -2 22 -4 32 -12 62 -26 90 -11 122 52 110 49 -9 74 15 75 72
2 33 9 50 30 71 45 45 126 65 146 36 3 -4 32 -24 64 -43 44 -26 63 -33 72 -25
16 13 6 42 -11 35 -7 -2 -19 7 -26 21 -12 23 -12 27 5 37 11 6 33 23 49 39 17
15 35 27 40 27 6 0 8 3 5 6 -3 3 -2 21 4 41 7 27 7 38 -4 44 -10 7 -10 11 -1
17 7 4 10 23 8 45 -1 20 1 40 6 43 15 9 10 51 -6 58 -8 3 -15 13 -15 22 0 20
-28 54 -44 54 -18 0 -33 33 -29 61 3 24 -1 27 -32 33 -38 8 -35 -7 -37 154 0
24 5 49 11 55 18 18 13 25 -25 37 -26 9 -40 22 -50 46 -17 40 -40 54 -88 54
-25 0 -38 6 -46 19 -7 13 -7 22 0 26 5 3 10 16 10 28 -1 20 -2 20 -13 6 -16
-21 -44 -19 -79 4 -36 25 -49 66 -36 111 9 29 17 37 45 42 26 5 39 2 56 -14
19 -18 28 -19 72 -11 28 5 57 9 65 8 31 -3 34 2 10 18 -14 10 -29 18 -33 18
-4 0 -11 6 -16 13 -4 7 -12 12 -17 11 -10 -3 -84 31 -100 46 -19 18 -32 50
-27 70 2 11 5 27 7 36 3 24 42 69 59 69 8 0 17 7 21 15 3 8 12 15 19 15 8 0
30 16 51 36 26 25 42 34 56 29 52 -16 70 -16 70 3 0 16 -7 18 -47 17 -95 -5
-125 38 -66 94 l33 32 -25 9 c-14 5 -29 9 -33 9 -20 -3 -33 2 -27 11 3 6 -1
13 -9 16 -9 3 -14 10 -11 14 3 5 1 11 -5 15 -6 4 -8 10 -5 15 3 4 -1 10 -9 13
-9 4 -13 19 -12 45 3 69 45 93 87 51 19 -19 19 -22 5 -38 -22 -24 -21 -58 2
-58 23 0 33 17 27 48 -9 41 10 79 40 79 27 0 34 -10 39 -56 2 -16 4 -33 5 -38
0 -5 8 -3 16 4 12 10 15 26 11 65 -7 79 17 99 82 69 32 -15 33 -18 27 -55 -4
-24 -3 -39 3 -39 10 0 16 18 28 84 3 16 7 33 10 37 9 15 74 21 102 11 15 -6
44 -13 65 -16 37 -5 39 -4 33 19 -3 13 -2 27 4 30 5 3 10 14 10 23 0 20 45 43
66 35 19 -7 18 0 -5 42 -10 20 -17 45 -14 56 6 21 36 42 46 32 4 -3 9 2 13 11
4 10 18 16 38 16 49 0 58 16 35 62 -18 35 -19 79 -1 77 25 -4 41 4 47 20 6 20
42 34 88 35 38 0 34 9 -15 34 -68 35 -77 45 -73 78 2 18 -4 39 -15 54 -16 21
-17 28 -5 50 7 14 33 38 58 53 69 44 70 95 2 68 -12 -5 -30 -3 -46 5 -36 18
-43 66 -16 102 32 42 32 42 62 48 16 3 41 16 57 29 23 20 25 24 10 27 -9 3
-33 -8 -52 -23 -19 -14 -61 -35 -93 -45 -67 -21 -71 -18 -82 53 -5 38 -3 49
20 79 14 19 32 34 40 34 20 0 77 58 70 70 -9 14 -17 13 -69 -10 -26 -11 -47
-19 -49 -19 -1 0 -14 -4 -29 -10 -51 -19 -32 24 29 66 31 22 55 23 91 4 25
-13 37 10 22 39 -14 27 4 35 77 33 59 -2 86 8 63 22 -19 12 -10 51 19 79 26
24 35 28 66 22 l36 -7 -16 24 c-18 28 -12 72 11 81 17 6 46 -3 56 -18 11 -16
10 23 -1 62 -14 46 12 56 44 16 22 -27 22 -30 7 -71 -16 -42 -16 -43 6 -59 12
-8 22 -21 22 -27 0 -7 11 -13 25 -14 14 -1 36 -3 50 -4 32 -2 40 -29 20 -75
-16 -38 -11 -62 6 -31 13 22 60 46 79 39 29 -10 50 -44 45 -72 -4 -23 1 -30
32 -46 43 -22 72 -52 73 -75 0 -9 8 -23 17 -30 9 -8 14 -9 10 -3 -13 23 21 81
54 93 18 6 33 10 34 9 15 -29 22 -60 19 -88 -2 -19 1 -42 6 -50 14 -23 34 3
36 48 1 49 10 63 58 92 34 20 53 24 129 24 99 1 92 5 151 -89 15 -25 30 -44
32 -43 2 2 -3 26 -11 53 -8 26 -12 46 -9 42 4 -3 13 0 20 8 8 7 18 15 23 17 5
1 11 23 14 48 5 47 38 86 64 76 8 -3 27 1 43 9 25 13 29 13 40 0 7 -8 18 -15
24 -15 6 0 23 -7 39 -14 25 -14 40 -5 17 9 -6 4 -8 10 -5 14 2 5 -7 19 -21 32
-38 35 -56 73 -41 88 6 6 7 11 3 11 -4 0 4 21 19 46 15 25 24 48 22 51 -3 2
-1 17 4 32 10 29 20 31 112 15 33 -6 37 -4 37 15 0 13 -7 22 -17 23 -19 1 -22
2 -70 13 -27 6 -33 12 -33 33 0 28 39 112 52 112 4 0 8 6 8 13 0 6 14 21 30
32 16 11 30 22 30 25 0 4 16 4 36 2 30 -4 35 -8 31 -24 -5 -17 -1 -19 31 -16
22 2 37 8 37 16 0 18 25 32 61 32 22 0 34 -7 44 -25 12 -22 18 -24 64 -20 33
3 55 11 66 23 25 31 88 21 122 -20 15 -18 28 -30 28 -26 0 4 11 3 25 -2 14 -5
25 -6 25 -1 0 5 15 7 33 4 38 -6 36 -6 64 -4 18 1 21 6 18 31 -3 26 0 31 28
39 44 13 44 13 51 -4z m2489 -479 c2 2 3 -18 3 -45 -1 -33 -7 -56 -20 -70 -18
-20 -29 -22 -126 -21 -13 0 -30 6 -37 13 -15 15 -6 57 13 57 8 0 14 4 14 9 0
5 11 12 25 15 15 4 22 11 19 20 -3 8 5 21 17 29 19 14 26 14 55 2 18 -7 34
-11 37 -9z m-5127 -234 c6 -4 13 -15 17 -24 10 -27 -35 -34 -72 -12 -32 19
-36 26 -24 37 9 9 65 9 79 -1z m-1016 -798 c20 -50 4 -112 -21 -87 -11 11 -13
31 -7 93 3 28 17 25 28 -6z m6552 -1170 c-13 -45 -17 -48 -86 -60 -27 -5 -28
-4 -17 10 8 9 19 16 26 16 7 0 20 11 30 24 17 22 53 30 47 10z m-6352 -1320
c0 -12 -82 -86 -88 -80 -4 4 3 16 16 27 13 10 21 23 18 28 -7 11 18 28 40 28
8 0 14 -2 14 -3z m-434 -29 c22 -17 26 -27 20 -49 -4 -15 -11 -24 -16 -21 -6
3 -10 2 -10 -4 0 -11 -51 -41 -69 -41 -5 0 -22 11 -36 24 -30 28 -30 59 0 94
25 28 74 27 111 -3z m254 -20 c0 -1 -8 -12 -19 -23 -20 -24 -111 -43 -111 -25
0 13 45 43 79 53 22 6 51 3 51 -5z m7214 -120 c15 -14 34 -25 42 -25 42 0 -19
-55 -66 -59 -19 -1 -32 0 -28 4 4 4 2 17 -4 29 -16 29 -16 49 2 63 21 17 23
16 54 -12z m-6493 -683 c6 -71 3 -116 -8 -132 -19 -27 -43 -26 -36 0 3 12 -1
28 -9 38 -36 43 -8 143 34 121 10 -5 19 -17 19 -27z m-100 -239 c-22 -15 -24
-11 -10 23 10 27 12 27 19 9 5 -13 2 -24 -9 -32z m5916 -413 c7 -14 18 -25 25
-26 24 -2 48 -16 42 -25 -3 -5 -9 -7 -14 -4 -5 3 -11 2 -14 -3 -2 -4 -23 -6
-46 -4 -47 5 -76 37 -65 72 9 30 55 23 72 -10z m-1429 -263 c13 1 21 -4 19
-11 -2 -6 0 -19 5 -30 15 -28 17 -66 3 -66 -16 0 -55 34 -55 49 0 6 -3 10 -7
10 -41 -7 -65 19 -43 46 9 10 20 13 34 8 12 -4 31 -7 44 -6z m-3430 -103 c34
-23 28 -58 -13 -84 -19 -12 -45 -20 -57 -18 -20 3 -23 8 -20 38 3 34 35 80 57
80 6 0 21 -7 33 -16z m-225 -248 c41 -31 2 -105 -47 -87 -11 5 -36 6 -54 3
-32 -4 -33 -3 -30 24 2 24 8 29 30 29 17 0 34 9 43 23 18 25 32 27 58 8z"/>
<path d="M7276 8552 c-2 -4 1 -17 7 -29 14 -25 42 -17 32 10 -7 17 -32 30 -39
19z"/>
<path d="M5310 8476 c0 -2 7 -7 16 -10 8 -3 12 -2 9 4 -6 10 -25 14 -25 6z"/>
<path d="M7735 8360 c-3 -5 -1 -10 4 -10 6 0 11 5 11 10 0 6 -2 10 -4 10 -3 0
-8 -4 -11 -10z"/>
<path d="M3775 7451 c-6 -10 33 -36 41 -28 3 2 2 12 -2 21 -7 18 -29 22 -39 7z"/>
<path d="M5872 7413 c-41 -82 -178 -537 -251 -837 l-27 -109 -18 59 c-10 32
-40 129 -68 214 -54 169 -148 493 -168 580 -16 69 -36 110 -55 110 -18 0 -28
-38 -21 -81 14 -89 109 -426 142 -504 16 -39 106 -333 134 -438 10 -38 17 -79
14 -90 -39 -207 -62 -307 -130 -556 -35 -128 -64 -246 -64 -261 0 -35 22 -56
39 -37 20 24 76 207 107 352 13 60 92 369 93 364 6 -46 52 -253 88 -399 25
-102 46 -189 47 -195 15 -66 20 -83 32 -102 15 -24 30 -28 52 -14 10 6 11 18
2 57 -7 27 -14 56 -17 64 -3 8 -8 20 -9 25 -6 17 -74 297 -89 365 -8 37 -16
77 -19 90 -3 14 -18 81 -32 150 l-26 125 60 230 c33 127 68 255 77 285 9 30
25 84 35 120 10 36 43 147 74 247 31 100 56 188 56 196 0 12 -19 27 -36 27 -2
0 -12 -17 -22 -37z"/>
<path d="M4220 7433 c-8 -3 -18 -11 -22 -16 -3 -6 -4 -166 -1 -356 5 -348 5
-551 -1 -1216 -2 -198 -1 -365 1 -372 6 -14 49 -18 57 -5 2 4 6 130 7 280 1
149 5 275 8 279 3 4 20 13 38 19 84 30 221 175 286 302 70 138 79 178 79 369
-1 147 -7 205 -33 301 -51 193 -182 346 -343 402 -33 11 -60 20 -60 19 -1 0
-8 -3 -16 -6z m124 -115 c55 -38 87 -72 131 -138 80 -122 110 -195 122 -293
11 -92 7 -316 -6 -367 -21 -81 -90 -204 -152 -272 -56 -63 -147 -138 -165
-138 -5 0 -10 281 -11 624 l-1 625 25 -10 c14 -5 40 -19 57 -31z"/>
<path d="M4936 7424 c-10 -10 -16 -34 -16 -67 -1 -180 -12 -1533 -14 -1677 -1
-96 1 -185 6 -197 10 -29 63 -33 70 -5 2 9 5 448 7 975 3 962 2 987 -30 987
-4 0 -15 -7 -23 -16z"/>
<path d="M6196 7424 c-13 -12 -16 -39 -16 -127 0 -154 -12 -1523 -14 -1677 -1
-69 2 -133 6 -142 13 -28 65 -24 70 5 2 12 5 451 7 975 3 956 2 982 -30 982
-4 0 -15 -7 -23 -16z"/>
<path d="M6547 7407 c-19 -19 -20 -33 -12 -456 4 -240 7 -440 7 -446 0 -127
-14 -853 -17 -911 -7 -125 -30 -117 310 -115 183 1 293 5 299 11 7 7 7 16 0
28 -10 15 -39 18 -274 22 l-263 5 2 215 c2 118 4 271 6 340 2 69 4 149 4 178
l1 52 114 0 c109 0 114 1 120 22 3 13 1 27 -5 33 -5 5 -59 10 -119 10 l-110 0
-1 200 c0 110 -2 229 -4 265 -4 77 -7 348 -6 438 l1 63 224 -2 c123 -1 229 2
235 5 16 10 14 31 -4 46 -11 9 -78 13 -252 14 -222 2 -238 1 -256 -17z"/>
<path d="M7455 7416 c-65 -21 -122 -54 -142 -83 -56 -85 -74 -165 -69 -303 7
-153 52 -263 186 -454 94 -134 127 -198 179 -349 50 -145 53 -162 56 -337 3
-208 -15 -279 -86 -333 -32 -23 -118 -25 -169 -3 -40 16 -86 59 -95 87 -4 10
-18 22 -32 25 -46 12 -50 -32 -9 -91 46 -67 98 -93 201 -102 141 -11 214 52
249 217 11 53 13 317 3 370 -40 204 -127 400 -264 598 -119 171 -158 285 -151
441 4 107 30 177 79 212 37 26 132 49 205 49 70 0 93 14 70 46 -12 16 -28 19
-93 21 -43 0 -96 -5 -118 -11z"/>
<path d="M4204 5249 c-2 -4 -6 -167 -10 -364 -4 -294 -3 -356 8 -353 13 5 15
35 17 271 l1 97 53 0 c45 1 50 2 34 14 -9 7 -32 12 -50 10 l-34 -4 1 152 1
153 84 2 c81 2 101 6 88 19 -8 8 -188 11 -193 3z"/>
<path d="M4546 5242 c-4 -11 -8 -29 -10 -39 -2 -10 -13 -58 -25 -106 -12 -49
-23 -103 -26 -120 -3 -18 -10 -48 -15 -67 -5 -19 -12 -53 -16 -75 -3 -22 -17
-95 -30 -162 -28 -141 -27 -133 -15 -133 13 0 29 48 42 125 6 39 12 77 14 85
2 12 16 14 76 12 41 -2 75 -5 76 -6 1 -1 4 -15 7 -31 3 -17 8 -39 10 -50 2
-12 7 -46 11 -77 5 -36 13 -59 22 -62 16 -7 16 3 -11 162 -9 48 -17 103 -20
122 -2 19 -9 62 -15 95 -5 33 -13 78 -16 100 -3 23 -7 50 -9 60 -2 11 -7 45
-11 75 -11 80 -14 93 -24 103 -5 5 -12 1 -15 -11z m18 -132 c3 -25 13 -85 21
-135 9 -49 18 -103 21 -120 2 -16 7 -41 10 -53 5 -23 4 -24 -48 -18 -84 10
-93 13 -90 25 1 6 5 28 8 49 3 20 9 53 14 72 5 19 12 51 15 70 8 48 37 161 40
158 2 -2 5 -23 9 -48z"/>
<path d="M4925 5246 c-105 -47 -176 -211 -170 -388 5 -135 20 -187 71 -247 32
-38 115 -81 157 -81 44 0 31 14 -33 34 -119 37 -171 134 -170 316 1 170 68
305 171 347 40 16 52 33 22 33 -10 -1 -31 -7 -48 -14z"/>
<path d="M5135 5250 l-40 -5 0 -355 0 -355 103 0 c57 0 109 3 115 7 19 12 -12
17 -108 20 l-89 3 1 90 c1 50 2 113 2 141 l1 52 41 0 c69 1 69 24 0 25 l-41 1
-1 105 c-1 58 -2 133 -3 166 -1 33 0 65 2 71 2 7 30 10 75 10 76 -2 97 1 97
14 0 10 -102 17 -155 10z"/>
<path d="M5637 5252 c-2 -4 -4 -166 -3 -361 1 -248 4 -355 12 -358 7 -2 11 22
12 74 1 135 0 133 25 142 26 10 70 58 100 109 19 31 22 52 22 137 0 86 -3 107
-24 147 -14 26 -36 58 -51 71 -28 26 -87 50 -93 39z m66 -52 c14 -11 38 -45
53 -76 22 -45 27 -69 27 -132 1 -67 -3 -84 -27 -124 -15 -26 -42 -60 -59 -74
l-32 -27 -5 214 c-3 118 -3 220 -1 227 5 17 14 15 44 -8z"/>
<path d="M6016 5251 c-4 -6 -9 -19 -11 -28 -2 -10 -13 -57 -24 -106 -12 -48
-28 -122 -37 -165 -9 -42 -18 -86 -20 -97 -3 -11 -7 -36 -10 -55 -3 -19 -15
-84 -28 -143 -13 -60 -19 -110 -14 -113 15 -9 18 -2 42 117 17 84 27 113 37
111 8 -2 41 -7 74 -10 l60 -7 13 -90 c15 -101 27 -139 42 -130 6 4 8 10 6 14
-3 4 -8 30 -12 57 -3 27 -8 58 -10 69 -2 10 -6 37 -9 60 -3 22 -13 81 -21 130
-18 108 -20 118 -34 220 -6 44 -13 95 -16 114 -6 43 -19 67 -28 52z m17 -158
c3 -27 8 -59 10 -73 3 -14 8 -47 12 -75 4 -27 8 -57 10 -65 16 -90 16 -100 2
-100 -18 0 -119 19 -124 23 -2 3 41 223 64 324 8 35 20 19 26 -34z"/>
<path d="M6257 5253 c-3 -5 -6 -169 -6 -366 -1 -303 1 -357 13 -357 12 0 14
54 14 360 0 319 -4 391 -21 363z"/>
<path d="M6405 5250 c-4 -6 -8 -171 -10 -366 -2 -295 0 -354 11 -354 8 0 14
10 15 23 0 12 1 157 1 322 1 175 5 285 9 265 22 -94 58 -280 63 -320 19 -154
52 -293 69 -287 23 7 29 86 43 540 4 126 3 187 -4 187 -23 0 -24 -10 -37 -430
-2 -63 -4 -137 -4 -164 -1 -61 -7 -57 -15 9 -8 55 -16 108 -21 135 -2 10 -7
40 -10 67 -4 26 -15 84 -26 128 -10 44 -21 91 -23 105 -18 97 -26 124 -39 137
-11 11 -17 12 -22 3z"/>
<path d="M6718 5252 c-16 -2 -28 -8 -28 -13 0 -10 2 -10 60 -14 22 -1 43 -3
48 -4 4 0 7 -154 7 -342 0 -306 4 -364 22 -346 2 3 5 159 4 346 0 261 3 341
12 342 7 1 36 2 66 3 34 1 56 6 58 14 4 9 -14 12 -64 13 -37 0 -88 1 -113 2
-25 1 -57 1 -72 -1z"/>
<path d="M7058 5253 c-3 -4 -6 -169 -7 -367 -2 -291 0 -357 11 -354 10 4 14
78 16 358 2 313 -3 396 -20 363z"/>
<path d="M7206 5252 c-10 -17 -14 -712 -4 -718 5 -3 12 -3 15 0 4 3 6 153 6
334 l0 327 28 -140 c25 -123 34 -170 55 -300 21 -132 38 -206 49 -215 30 -25
34 15 50 450 8 239 8 270 -4 270 -21 0 -23 -33 -36 -445 -2 -66 -4 -136 -5
-155 -2 -30 -22 71 -45 225 -4 22 -20 99 -36 171 -16 72 -29 138 -29 147 0 23
-35 63 -44 49z"/>
<path d="M7657 5247 c-92 -23 -167 -215 -168 -430 0 -109 12 -157 57 -234 56
-96 155 -62 157 54 1 111 -2 123 -35 137 -36 16 -60 15 -66 -2 -2 -7 6 -12 20
-12 41 0 50 -14 55 -88 4 -66 3 -73 -21 -97 -38 -38 -64 -23 -105 59 -31 60
-35 77 -36 154 -2 75 8 157 29 249 20 90 93 193 136 193 20 0 36 16 23 23 -5
2 -25 -1 -46 -6z"/>
<path d="M2960 4936 c0 -2 7 -6 15 -10 8 -3 15 -1 15 4 0 6 -7 10 -15 10 -8 0
-15 -2 -15 -4z"/>
<path d="M8836 4811 c-22 -24 -19 -30 10 -22 15 4 19 11 15 24 -6 17 -8 17
-25 -2z"/>
<path d="M8726 4691 c-3 -5 4 -11 16 -14 29 -8 32 -4 8 11 -10 6 -21 8 -24 3z"/>
<path d="M7887 4414 c-9 -9 8 -50 35 -85 25 -30 28 -32 28 -12 0 12 -4 24 -9
28 -5 3 -12 18 -16 34 -6 27 -27 46 -38 35z"/>
<path d="M8567 4353 c-3 -5 -8 -24 -11 -43 -7 -33 -6 -34 9 -16 8 11 15 30 15
43 0 23 -5 29 -13 16z"/>
<path d="M3996 4315 c-11 -8 -15 -15 -9 -15 6 0 16 7 23 15 16 19 11 19 -14 0z"/>
<path d="M7500 4011 c0 -12 39 -25 48 -16 7 7 -17 25 -35 25 -7 0 -13 -4 -13
-9z"/>
<path d="M7435 3689 c-4 -6 -5 -12 -2 -15 2 -3 7 2 10 11 7 17 1 20 -8 4z"/>
<path d="M5522 3620 c7 -10 14 -18 15 -16 6 6 -9 36 -18 36 -5 0 -4 -9 3 -20z"/>
<path d="M7482 3469 c2 -19 8 -33 13 -31 15 3 12 55 -3 60 -10 3 -13 -5 -10
-29z"/>
<path d="M6668 10279 c-18 -29 -31 -79 -21 -79 13 1 37 24 50 47 9 16 9 25 -1
38 -11 16 -13 15 -28 -6z"/>
<path d="M6610 10175 c-20 -24 -6 -28 15 -5 10 11 13 20 8 20 -6 0 -16 -7 -23
-15z"/>
<path d="M2975 9836 c21 -32 27 -33 16 -4 -4 12 -14 24 -20 26 -8 3 -7 -5 4
-22z"/>
<path d="M5034 9835 c-9 -14 -15 -27 -13 -30 3 -2 12 10 21 26 21 36 15 39 -8
4z"/>
<path d="M9040 9690 c-13 -11 -26 -20 -30 -20 -5 0 -10 -7 -14 -15 -4 -12 -2
-13 12 -6 40 22 85 61 70 61 -8 0 -25 -9 -38 -20z"/>
<path d="M2769 9628 c9 -24 31 -37 27 -16 -2 19 -16 38 -26 38 -5 0 -6 -10 -1
-22z"/>
<path d="M8886 8646 c4 -11 65 -46 80 -46 10 0 -22 25 -53 42 -22 11 -30 12
-27 4z"/>
<path d="M2635 8523 c9 -21 23 -45 31 -53 13 -13 14 -11 8 20 -7 35 -30 70
-46 70 -4 0 -1 -17 7 -37z"/>
<path d="M1745 7863 c3 -16 15 -41 25 -58 10 -16 31 -51 46 -77 15 -26 31 -45
35 -42 5 3 0 17 -11 32 -11 15 -26 53 -34 86 -17 64 -31 86 -53 86 -11 0 -13
-7 -8 -27z"/>
<path d="M10320 6389 c0 -5 5 -7 10 -4 6 3 10 8 10 11 0 2 -4 4 -10 4 -5 0
-10 -5 -10 -11z"/>
<path d="M10190 6331 c0 -6 4 -13 10 -16 6 -3 7 1 4 9 -7 18 -14 21 -14 7z"/>
<path d="M9989 6083 c-13 -16 -12 -17 4 -4 9 7 17 15 17 17 0 8 -8 3 -21 -13z"/>
<path d="M1563 5853 c7 -10 45 -21 102 -28 l30 -4 -30 13 c-42 19 -110 32
-102 19z"/>
<path d="M1687 4542 c-9 -51 -6 -71 12 -77 36 -11 49 3 44 48 -5 48 -4 46 -31
52 -16 3 -22 -2 -25 -23z"/>
<path d="M1637 4093 c-9 -2 -15 -8 -12 -12 6 -10 53 -2 61 10 5 9 -18 10 -49
2z"/>
<path d="M2135 3410 c-3 -5 -1 -10 4 -10 6 0 11 5 11 10 0 6 -2 10 -4 10 -3 0
-8 -4 -11 -10z"/>
<path d="M2118 3373 c-9 -10 -13 -24 -11 -30 3 -7 0 -13 -6 -13 -6 0 -8 -7 -5
-15 10 -25 20 -17 33 26 14 47 11 57 -11 32z"/>
<path d="M3094 2883 c-19 -20 -32 -38 -29 -41 3 -3 12 4 21 17 9 12 25 31 37
41 11 11 17 20 13 20 -4 0 -23 -16 -42 -37z"/>
<path d="M2967 2860 c-9 -11 -13 -20 -7 -20 5 0 14 9 20 20 6 11 9 20 8 20 -2
0 -11 -9 -21 -20z"/>
<path d="M2915 2790 c-10 -11 -14 -20 -9 -20 5 0 15 9 22 20 7 11 11 20 9 20
-2 0 -12 -9 -22 -20z"/>
<path d="M3319 2703 c-13 -15 -12 -15 9 -4 23 12 28 21 13 21 -5 0 -15 -7 -22
-17z"/>
<path d="M3233 2663 c-22 -8 -14 -31 12 -37 14 -4 25 -11 25 -16 0 -12 121
-130 133 -130 29 0 -28 67 -121 142 -12 10 -22 25 -22 33 0 15 -6 17 -27 8z"/>
<path d="M3835 2460 c3 -5 11 -10 16 -10 6 0 7 5 4 10 -3 6 -11 10 -16 10 -6
0 -7 -4 -4 -10z"/>
<path d="M5287 2114 c5 -13 52 -44 68 -44 18 0 -1 21 -35 39 -30 16 -38 17
-33 5z"/>
<path d="M4112 1739 c-19 -30 -11 -32 11 -3 10 13 14 24 10 24 -5 0 -14 -9
-21 -21z"/>
<path d="M4678 1702 c-7 -25 24 -115 37 -111 14 5 8 40 -14 89 -15 33 -19 37
-23 22z"/>
<path d="M7402 1644 c-1 -13 3 -24 8 -24 12 0 14 37 2 44 -4 2 -9 -6 -10 -20z"/>
</g>
</svg>
